<svg xmlns="http://www.w3.org/2000/svg" width="256" height="256" viewBox="0 0 100 100"><rect width="100" height="100" rx="20" fill="#563d7c"></rect><path d="M40.25 49.45L40.25 49.45Q40.25 44.46 38.73 40.91Q37.21 37.36 34.60 35.10Q31.98 32.84 28.51 31.79Q25.04 30.73 21.06 30.73L21.06 30.73Q18.57 30.73 16.73 30.89Q14.90 31.05 13.34 31.36L13.34 31.36L13.34 68.49Q15.21 68.95 17.36 69.11Q19.50 69.27 21.76 69.27L21.76 69.27Q30.97 69.27 35.61 64.27Q40.25 59.28 40.25 49.45ZM46.72 49.45L46.72 49.45Q46.72 55.85 44.97 60.57Q43.21 65.29 39.98 68.41Q36.74 71.53 32.14 73.05Q27.54 74.57 21.84 74.57L21.84 74.57Q19.35 74.57 16.23 74.38Q13.11 74.18 10.30 73.32L10.30 73.32Q7.02 72.31 7.02 69.73L7.02 69.73L7.02 29.64Q7.02 28.39 7.65 27.73Q8.27 27.07 9.60 26.68L9.60 26.68Q12.01 25.90 15.06 25.66Q18.10 25.43 21.14 25.43L21.14 25.43Q26.83 25.43 31.55 26.95Q36.27 28.47 39.63 31.48Q42.98 34.48 44.85 38.96Q46.72 43.45 46.72 49.45ZM92.51 31.51L92.51 31.51Q92.51 32.61 91.85 33.39Q91.18 34.17 90.33 34.56L90.33 34.56Q88.30 33.15 85.57 31.90Q82.84 30.66 78.47 30.66L78.47 30.66Q74.88 30.66 71.84 31.90Q68.80 33.15 66.54 35.57Q64.27 37.99 62.99 41.65Q61.70 45.32 61.70 50.08L61.70 50.08Q61.70 54.91 62.95 58.50Q64.20 62.09 66.42 64.51Q68.64 66.93 71.76 68.14Q74.88 69.34 78.70 69.34L78.70 69.34Q82.76 69.34 85.76 68.21Q88.77 67.08 90.79 65.52L90.79 65.52Q91.57 65.83 92.28 66.65Q92.98 67.47 92.98 68.56L92.98 68.56Q92.98 70.20 91.11 71.53L91.11 71.53Q89.31 72.78 86.19 73.75Q83.07 74.73 78.24 74.73L78.24 74.73Q73.32 74.73 69.11 73.17Q64.90 71.61 61.82 68.53Q58.74 65.44 56.94 60.84Q55.15 56.24 55.15 50.08L55.15 50.08Q55.15 43.92 56.98 39.28Q58.81 34.63 61.93 31.51Q65.05 28.39 69.23 26.83Q73.40 25.27 78.00 25.27L78.00 25.27Q81.20 25.27 83.89 25.82Q86.58 26.37 88.49 27.26Q90.40 28.16 91.46 29.29Q92.51 30.42 92.51 31.51Z" fill="#ffffff"></path></svg>